<?xml version="1.0" encoding="utf-8"?>
<!-- Generator: Adobe Illustrator 16.0.0, SVG Export Plug-In . SVG Version: 6.00 Build 0)  -->
<!DOCTYPE svg PUBLIC "-//W3C//DTD SVG 1.1//EN" "http://www.w3.org/Graphics/SVG/1.1/DTD/svg11.dtd">
<svg version="1.1" id="Layer_1" xmlns="http://www.w3.org/2000/svg" xmlns:xlink="http://www.w3.org/1999/xlink" x="0px" y="0px"
	 width="32px" height="32px" viewBox="0 0 32 32" enable-background="new 0 0 32 32" xml:space="preserve">
<g id="search_1_">
	<path fill="#333333" d="M20,0C13.373,0,8,5.373,8,12c0,2.026,0.507,3.933,1.395,5.608L1.051,25.95l0.007,0.006
		C0.406,26.597,0,27.485,0,28.472c0,1.949,1.58,3.529,3.529,3.529c0.985,0,1.874-0.406,2.515-1.059L6.042,30.94l8.341-8.34
		c1.676,0.891,3.586,1.398,5.617,1.398c6.627,0,12-5.373,12-12S26.627,0,20,0z M4.795,29.692c-0.322,0.334-0.768,0.543-1.266,0.543
		c-0.975,0-1.765-0.789-1.765-1.764c0-0.498,0.21-0.943,0.543-1.268l-0.009-0.008l8.066-8.066c0.705,0.951,1.545,1.791,2.494,2.498
		L4.795,29.692z M20,22.001c-5.522,0-10-4.479-10-10c0-5.522,4.478-10,10-10c5.521,0,10,4.478,10,10
		C30,17.522,25.521,22.001,20,22.001z"/>
</g>
</svg>
