<?xml version="1.0" encoding="utf-8"?>
<!-- Generator: Adobe Illustrator 16.0.0, SVG Export Plug-In . SVG Version: 6.00 Build 0)  -->
<!DOCTYPE svg PUBLIC "-//W3C//DTD SVG 1.1//EN" "http://www.w3.org/Graphics/SVG/1.1/DTD/svg11.dtd">
<svg version="1.1" id="Layer_1" xmlns="http://www.w3.org/2000/svg" xmlns:xlink="http://www.w3.org/1999/xlink" x="0px" y="0px"
	 width="595.279px" height="841.891px" viewBox="0 0 595.279 841.891" enable-background="new 0 0 595.279 841.891"
	 xml:space="preserve">
<g>
	<g>
		<path fill="#651A53" d="M575.303,245.313l-41.728-0.002v-43.195c0-9.889-7.235-18.292-17.017-19.754
			c-1.707-0.256-42.358-6.161-91.31,2.746c-54.571,9.93-98.093,34.416-127.61,71.434c-29.52-37.018-73.041-61.504-127.609-71.434
			c-48.953-8.905-89.604-3.002-91.311-2.746c-9.781,1.465-17.017,9.867-17.017,19.754v43.195H19.975
			C8.946,245.311,0,254.256,0,265.288v376.418c0,6.468,3.131,12.535,8.403,16.283c5.273,3.748,12.034,4.71,18.142,2.581
			c1.499-0.519,151.187-51.604,262.804-0.691c5.268,2.403,11.314,2.403,16.582,0c111.305-50.769,261.312,0.177,262.804,0.691
			c2.141,0.746,4.357,1.112,6.566,1.112c4.095,0,8.147-1.259,11.575-3.691c5.273-3.748,8.403-9.815,8.403-16.283V265.29
			C595.278,254.258,586.335,245.313,575.303,245.313z M39.951,614.979V285.263h21.751v266.023c0,5.805,2.539,11.316,6.931,15.11
			s10.232,5.496,15.973,4.647c1.103-0.16,87.881-12.073,151.281,31.426C157.788,589.115,79.625,604.562,39.951,614.979z
			 M277.664,584.455c-27.924-25.23-64.296-42.291-107.635-50.176c-20.857-3.796-40.207-4.902-55.68-4.902
			c-4.594,0-8.848,0.099-12.693,0.253v-309.17h-0.002c38.393-1.731,131.787,2.373,176.01,77.34V584.455z M317.614,297.802
			c44.064-74.646,137.605-78.938,176.01-77.292v309.12c-16.802-0.678-41.328-0.273-68.374,4.649
			c-43.34,7.885-79.712,24.943-107.636,50.176V297.802L317.614,297.802z M359.325,602.481
			c63.408-43.525,150.232-31.6,151.314-31.439c5.755,0.864,11.591-0.827,15.997-4.619c4.405-3.797,6.938-9.32,6.938-15.137V285.265
			h21.751v329.714C515.641,604.559,437.446,589.105,359.325,602.481z"/>
	</g>
</g>
</svg>
